<svg width="192" height="192" viewBox="0 0 192 192" fill="none" xmlns="http://www.w3.org/2000/svg">
<rect width="192" height="192" fill="url(#paint0_radial_1113_6)"/>
<g filter="url(#filter0_d_1113_6)">
<path d="M67.8397 80.6098L49.3697 95.9998L67.8397 111.39C68.4522 111.892 68.9594 112.51 69.3318 113.209C69.7042 113.908 69.9345 114.674 70.0096 115.462C70.0846 116.251 70.0028 117.046 69.7689 117.803C69.535 118.559 69.1536 119.262 68.6467 119.871C68.1398 120.479 67.5175 120.981 66.8156 121.348C66.1137 121.715 65.3461 121.939 64.5572 122.008C63.7682 122.077 62.9734 121.988 62.2187 121.748C61.4639 121.509 60.7641 121.122 60.1597 120.61L36.1597 100.61C35.4838 100.047 34.9399 99.3419 34.5667 98.5452C34.1935 97.7486 34 96.8796 34 95.9998C34 95.1201 34.1935 94.2511 34.5667 93.4544C34.9399 92.6578 35.4838 91.9529 36.1597 91.3898L60.1597 71.3898C61.3841 70.3864 62.9553 69.9075 64.5312 70.0575C66.1071 70.2075 67.5599 70.9741 68.573 72.1904C69.5861 73.4067 70.0776 74.9741 69.9402 76.5511C69.8029 78.1282 69.0479 79.587 67.8397 80.6098ZM155.84 91.3898L131.84 71.3898C131.235 70.8781 130.535 70.4911 129.781 70.2512C129.026 70.0112 128.231 69.923 127.442 69.9918C126.653 70.0605 125.886 70.2847 125.184 70.6515C124.482 71.0184 123.86 71.5205 123.353 72.129C122.846 72.7375 122.464 73.4404 122.231 74.197C121.997 74.9536 121.915 75.7491 121.99 76.5375C122.065 77.3259 122.295 78.0917 122.668 78.7906C123.04 79.4895 123.547 80.1078 124.16 80.6098L142.63 95.9998L124.16 111.39C123.547 111.892 123.04 112.51 122.668 113.209C122.295 113.908 122.065 114.674 121.99 115.462C121.915 116.251 121.997 117.046 122.231 117.803C122.464 118.559 122.846 119.262 123.353 119.871C123.86 120.479 124.482 120.981 125.184 121.348C125.886 121.715 126.653 121.939 127.442 122.008C128.231 122.077 129.026 121.988 129.781 121.748C130.535 121.509 131.235 121.122 131.84 120.61L155.84 100.61C156.516 100.047 157.059 99.3419 157.433 98.5452C157.806 97.7486 157.999 96.8796 157.999 95.9998C157.999 95.1201 157.806 94.2511 157.433 93.4544C157.059 92.6578 156.516 91.9529 155.84 91.3898ZM114.05 46.3598C113.309 46.0905 112.523 45.9697 111.735 46.0043C110.948 46.039 110.175 46.2284 109.461 46.5618C108.747 46.8952 108.105 47.366 107.573 47.9473C107.041 48.5286 106.629 49.2091 106.36 49.9498L74.3597 137.95C73.8173 139.445 73.8907 141.094 74.5639 142.535C75.2371 143.977 76.4549 145.091 77.9497 145.635C78.606 145.877 79.3001 146.001 79.9997 146C81.2316 146 82.4337 145.621 83.4427 144.914C84.4518 144.208 85.2188 143.208 85.6397 142.05L117.64 54.0498C117.909 53.3092 118.03 52.5227 117.995 51.7354C117.961 50.9481 117.771 50.1753 117.438 49.4611C117.104 48.747 116.634 48.1056 116.052 47.5734C115.471 47.0413 114.79 46.6289 114.05 46.3598Z" fill="url(#paint1_radial_1113_6)"/>
</g>
<defs>
<filter id="filter0_d_1113_6" x="28" y="39.9985" width="143.999" height="120.001" filterUnits="userSpaceOnUse" color-interpolation-filters="sRGB">
<feFlood flood-opacity="0" result="BackgroundImageFix"/>
<feColorMatrix in="SourceAlpha" type="matrix" values="0 0 0 0 0 0 0 0 0 0 0 0 0 0 0 0 0 0 127 0" result="hardAlpha"/>
<feOffset dx="4" dy="4"/>
<feGaussianBlur stdDeviation="5"/>
<feComposite in2="hardAlpha" operator="out"/>
<feColorMatrix type="matrix" values="0 0 0 0 0.234476 0 0 0 0 0.355241 0 0 0 0 0.435751 0 0 0 0.25 0"/>
<feBlend mode="normal" in2="BackgroundImageFix" result="effect1_dropShadow_1113_6"/>
<feBlend mode="normal" in="SourceGraphic" in2="effect1_dropShadow_1113_6" result="shape"/>
</filter>
<radialGradient id="paint0_radial_1113_6" cx="0" cy="0" r="1" gradientUnits="userSpaceOnUse" gradientTransform="translate(64 45) rotate(47.8258) scale(193.629)">
<stop stop-color="#80DDF2"/>
<stop offset="0.692142" stop-color="#7796EB"/>
<stop offset="1" stop-color="#2F4A95"/>
</radialGradient>
<radialGradient id="paint1_radial_1113_6" cx="0" cy="0" r="1" gradientUnits="userSpaceOnUse" gradientTransform="translate(80.5 68.5) rotate(78.6903) scale(79.0346 98.0011)">
<stop stop-color="#F8F8F8"/>
<stop offset="1" stop-color="#BCF5FF"/>
</radialGradient>
</defs>
</svg>
