<svg width="32" height="32" viewBox="0 0 17 16" fill="none" xmlns="http://www.w3.org/2000/svg">
<path d="M6.41667 3.498C6.41702 3.10047 6.57523 2.71935 6.85652 2.43844C7.1378 2.15753 7.51913 1.99982 7.91667 2H9.58333C9.98087 1.99982 10.3622 2.15753 10.6435 2.43844C10.9248 2.71935 11.083 3.10047 11.0833 3.498V4.67733H13.25C13.6475 4.67716 14.0289 4.83486 14.3101 5.11577C14.5914 5.39668 14.7496 5.7778 14.75 6.17533V13.5007C14.7498 13.6332 14.6971 13.7602 14.6033 13.8538C14.5096 13.9474 14.3825 14 14.25 14H3.25C3.11739 14 2.99021 13.9473 2.89645 13.8536C2.80268 13.7598 2.75 13.6326 2.75 13.5V8.17333C2.75009 7.97644 2.78896 7.78149 2.86438 7.59961C2.93981 7.41774 3.05033 7.2525 3.18962 7.11334C3.3289 6.97418 3.49424 6.86381 3.67618 6.78854C3.85812 6.71327 4.0531 6.67458 4.25 6.67467H6.41667V3.498ZM7.41667 13.002H10.0833V3.498C10.0832 3.36551 10.0304 3.2385 9.93665 3.14488C9.8429 3.05125 9.71583 2.99867 9.58333 2.99867H7.91667C7.78406 2.99867 7.65688 3.05135 7.56311 3.14511C7.46935 3.23888 7.41667 3.36606 7.41667 3.49867V13.002ZM6.41667 7.67333H4.25C4.11751 7.67333 3.99043 7.72592 3.89668 7.81954C3.80293 7.91317 3.75018 8.04017 3.75 8.17267V13.0007H6.41667V7.67333ZM11.0833 13H13.75V6.176C13.75 6.04339 13.6973 5.91622 13.6036 5.82245C13.5098 5.72868 13.3826 5.676 13.25 5.676H11.0833V13.002V13Z" fill="white"/>
</svg>
