<svg width="32" height="32" viewBox="0 0 17 16" fill="none" xmlns="http://www.w3.org/2000/svg">
<path d="M9.18937 1.67439C8.58697 1.43015 7.91311 1.43015 7.31071 1.67439L2.31204 3.70106C2.09673 3.78827 1.91236 3.93778 1.78254 4.13042C1.65272 4.32307 1.58337 4.55009 1.58337 4.78239V11.2171C1.58337 11.4494 1.65272 11.6764 1.78254 11.869C1.91236 12.0617 2.09673 12.2112 2.31204 12.2984L7.31071 14.3251C7.40071 14.3617 7.49271 14.3931 7.58537 14.4184C7.584 14.39 7.58334 14.3615 7.58337 14.3331V13.3564L2.68737 11.3717C2.6566 11.3592 2.63026 11.3378 2.61173 11.3103C2.5932 11.2827 2.58333 11.2503 2.58337 11.2171V5.16639L7.75004 7.17572V10.2724C7.84941 10.0682 7.98933 9.88645 8.16126 9.73814C8.33318 9.58982 8.53352 9.47808 8.75004 9.40972V7.17639L13.9167 5.18172V7.70039C14.2165 7.85339 14.4685 8.08599 14.6449 8.37269C14.8212 8.65939 14.9153 8.98911 14.9167 9.32573V4.78239C14.9167 4.55009 14.8474 4.32307 14.7175 4.13042C14.5877 3.93778 14.4034 3.78827 14.188 3.70106L9.18937 1.67439ZM7.68671 2.60106C8.048 2.45466 8.45209 2.45466 8.81337 2.60106L13.2087 4.38306L11.4287 5.06972L6.41071 3.11839L7.68671 2.60106ZM5.06004 3.66639L10.0447 5.60506L8.25137 6.29772L3.31004 4.37572L5.06004 3.66639ZM9.58337 9.99973H9.25004C8.98482 9.99973 8.73047 10.1051 8.54293 10.2926C8.3554 10.4802 8.25004 10.7345 8.25004 10.9997V11.9997H9.91671V11.8331C9.91671 11.7004 9.96939 11.5733 10.0632 11.4795C10.1569 11.3857 10.2841 11.3331 10.4167 11.3331C10.5493 11.3331 10.6765 11.3857 10.7703 11.4795C10.864 11.5733 10.9167 11.7004 10.9167 11.8331V11.9997H12.9167V11.8331C12.9167 11.7004 12.9694 11.5733 13.0632 11.4795C13.1569 11.3857 13.2841 11.3331 13.4167 11.3331C13.5493 11.3331 13.6765 11.3857 13.7703 11.4795C13.864 11.5733 13.9167 11.7004 13.9167 11.8331V11.9997H15.5834V10.9997C15.5834 10.7345 15.478 10.4802 15.2905 10.2926C15.1029 10.1051 14.8486 9.99973 14.5834 9.99973H14.25V9.33306C14.25 9.02364 14.1271 8.72689 13.9083 8.5081C13.6895 8.28931 13.3928 8.16639 13.0834 8.16639H10.75C10.4406 8.16639 10.1439 8.28931 9.92508 8.5081C9.70629 8.72689 9.58337 9.02364 9.58337 9.33306V9.99973ZM10.5834 9.33306C10.5834 9.28886 10.6009 9.24646 10.6322 9.21521C10.6634 9.18395 10.7058 9.16639 10.75 9.16639H13.0834C13.1276 9.16639 13.17 9.18395 13.2012 9.21521C13.2325 9.24646 13.25 9.28886 13.25 9.33306V9.99973H10.5834V9.33306ZM8.25004 14.3331V12.9997H9.91671V13.4997C9.91671 13.6323 9.96939 13.7595 10.0632 13.8533C10.1569 13.947 10.2841 13.9997 10.4167 13.9997C10.5493 13.9997 10.6765 13.947 10.7703 13.8533C10.864 13.7595 10.9167 13.6323 10.9167 13.4997V12.9997H12.9167V13.4997C12.9167 13.6323 12.9694 13.7595 13.0632 13.8533C13.1569 13.947 13.2841 13.9997 13.4167 13.9997C13.5493 13.9997 13.6765 13.947 13.7703 13.8533C13.864 13.7595 13.9167 13.6323 13.9167 13.4997V12.9997H15.5834V14.3331C15.5834 14.5983 15.478 14.8526 15.2905 15.0402C15.1029 15.2277 14.8486 15.3331 14.5834 15.3331H9.25004C8.98482 15.3331 8.73047 15.2277 8.54293 15.0402C8.3554 14.8526 8.25004 14.5983 8.25004 14.3331Z" fill="white"/>
</svg>
