<svg width="32" height="32" viewBox="0 0 17 16" fill="none" xmlns="http://www.w3.org/2000/svg">
<path d="M10.1214 6.16633C10.0327 6.06777 9.9085 6.00848 9.7761 6.00148C9.64371 5.99448 9.51396 6.04034 9.41537 6.12899L7.74871 7.62899C7.69671 7.67587 7.65514 7.73315 7.62669 7.79712C7.59824 7.86109 7.58354 7.93032 7.58354 8.00033C7.58354 8.07033 7.59824 8.13956 7.62669 8.20353C7.65514 8.2675 7.69671 8.32478 7.74871 8.37166L9.41537 9.87166C9.51395 9.96042 9.64374 10.0064 9.7762 9.99944C9.90867 9.99251 10.0329 9.93323 10.1217 9.83466C10.2105 9.73609 10.2564 9.60629 10.2495 9.47383C10.2426 9.34137 10.1833 9.21708 10.0847 9.12833L9.38604 8.50033H11.75C11.8157 8.50033 11.8807 8.48739 11.9414 8.46226C12.002 8.43714 12.0572 8.40031 12.1036 8.35388C12.15 8.30745 12.1869 8.25233 12.212 8.19167C12.2371 8.131 12.25 8.06599 12.25 8.00033C12.25 7.93466 12.2371 7.86965 12.212 7.80898C12.1869 7.74832 12.15 7.6932 12.1036 7.64677C12.0572 7.60034 12.002 7.56351 11.9414 7.53839C11.8807 7.51326 11.8157 7.50033 11.75 7.50033H9.38604L10.0847 6.87232C10.1832 6.78355 10.2423 6.65931 10.2492 6.52692C10.2561 6.39453 10.2101 6.26482 10.1214 6.16633ZM1.58337 11.501C1.58355 11.9871 1.77678 12.4532 2.12058 12.7969C2.46438 13.1406 2.93059 13.3337 3.41671 13.3337H13.0834C13.3241 13.3337 13.5625 13.2862 13.785 13.1941C14.0074 13.102 14.2095 12.9669 14.3797 12.7967C14.55 12.6264 14.685 12.4243 14.7772 12.2019C14.8693 11.9795 14.9167 11.7411 14.9167 11.5003V4.50033C14.9167 4.0141 14.7236 3.54778 14.3797 3.20396C14.0359 2.86015 13.5696 2.66699 13.0834 2.66699H3.41671C2.93048 2.66699 2.46416 2.86015 2.12034 3.20396C1.77653 3.54778 1.58337 4.0141 1.58337 4.50033V11.501ZM3.41671 12.3343C2.95671 12.3343 2.58337 11.961 2.58337 11.501V4.49966C2.58337 4.03966 2.95671 3.66633 3.41671 3.66633H5.58604V12.3337L3.41671 12.3343ZM6.58604 12.3343V3.66699H13.0834C13.5434 3.66699 13.9167 4.04033 13.9167 4.50033V11.5003C13.9167 11.9603 13.5434 12.3337 13.0834 12.3337L6.58604 12.3343Z" fill="white"/>
</svg>
