<svg width="32" height="32" viewBox="0 0 17 16" fill="none" xmlns="http://www.w3.org/2000/svg">
<path d="M9.98998 1.64663L9.93865 1.60196C9.84254 1.52876 9.72312 1.49294 9.60259 1.50115C9.48205 1.50937 9.3686 1.56106 9.28331 1.64663L9.23798 1.69863C9.16508 1.7954 9.12953 1.91522 9.13785 2.03609C9.14618 2.15696 9.19783 2.27077 9.28331 2.35663L10.5973 3.67463H5.91665L5.76131 3.6773C3.43998 3.7593 1.58331 5.6733 1.58331 8.02396C1.58331 9.15063 2.00998 10.1773 2.71131 10.9506L2.75931 10.9966C2.85364 11.0773 2.97458 11.1201 3.09865 11.1166C3.22273 11.1132 3.34111 11.0638 3.43081 10.978C3.52051 10.8922 3.57514 10.7761 3.5841 10.6523C3.59306 10.5285 3.55572 10.4058 3.47931 10.308L3.34598 10.154C2.85151 9.55416 2.58179 8.80064 2.58331 8.0233C2.58331 6.17596 4.07598 4.67796 5.91665 4.67796H10.504L9.28265 5.90463L9.23798 5.95663C9.16508 6.0534 9.12953 6.17322 9.13785 6.29409C9.14618 6.41496 9.19783 6.52877 9.28331 6.61463C9.32965 6.66115 9.38471 6.69807 9.44534 6.72326C9.50598 6.74844 9.57099 6.76141 9.63665 6.76141C9.7023 6.76141 9.76732 6.74844 9.82795 6.72326C9.88859 6.69807 9.94365 6.66115 9.98998 6.61463L12.1113 4.48596L12.156 4.43396C12.229 4.33727 12.2646 4.2175 12.2564 4.09663C12.2482 3.97576 12.1967 3.86191 12.1113 3.77596L9.98998 1.64663ZM13.7366 5.0473C13.6401 4.96753 13.5172 4.92684 13.3921 4.93325C13.2671 4.93966 13.1489 4.99271 13.0611 5.08192C12.9732 5.17114 12.9219 5.29005 12.9174 5.4152C12.9129 5.54035 12.9554 5.66264 13.0366 5.75796C13.604 6.37578 13.9182 7.18447 13.9166 8.0233C13.9166 9.8713 12.424 11.3693 10.5833 11.3693H5.95531L7.22531 10.0953L7.27465 10.038C7.33869 9.95058 7.37283 9.84486 7.37199 9.73652C7.37115 9.62819 7.33537 9.52301 7.26998 9.43663L7.22531 9.3853L7.16931 9.33663C7.08242 9.27209 6.97688 9.23757 6.86864 9.23829C6.7604 9.23902 6.65534 9.27494 6.56931 9.34063L6.51865 9.3853L4.39731 11.5146L4.34865 11.5713C4.28451 11.6586 4.25025 11.7643 4.25097 11.8726C4.25169 11.981 4.28735 12.0862 4.35265 12.1726L4.39731 12.224L6.51865 14.3533L6.57465 14.4013C6.76998 14.548 7.04798 14.5313 7.22531 14.3526C7.3108 14.2668 7.36245 14.153 7.37077 14.0321C7.3791 13.9112 7.34355 13.7914 7.27065 13.6946L7.22531 13.6433L5.95931 12.3726H10.5833L10.7386 12.37C13.06 12.288 14.9166 10.3733 14.9166 8.0233C14.9184 6.93968 14.5148 5.89457 13.7853 5.0933L13.7366 5.0473Z" fill="white"/>
</svg>
