<svg width="32" height="32" viewBox="0 0 17 16" fill="none" xmlns="http://www.w3.org/2000/svg">
<path d="M9.0713 2.55166C8.3293 2.00233 7.27397 2.491 7.21263 3.41166L7.10663 5.00033H8.91663C9.04924 5.00033 9.17642 5.05301 9.27019 5.14678C9.36395 5.24055 9.41663 5.36772 9.41663 5.50033C9.41663 5.63294 9.36395 5.76012 9.27019 5.85388C9.17642 5.94765 9.04924 6.00033 8.91663 6.00033H7.03997L6.63997 12.0043C6.51997 13.7943 4.4013 14.6723 3.0513 13.491L2.92063 13.3763C2.82082 13.289 2.7598 13.1656 2.75098 13.0332C2.74217 12.9009 2.78629 12.7705 2.87363 12.6707C2.96098 12.5709 3.08439 12.5098 3.21673 12.501C3.34907 12.4922 3.47949 12.5363 3.5793 12.6237L3.7093 12.7377C4.43663 13.3743 5.57797 12.9017 5.64197 11.9377L6.03797 6.00033H4.5833C4.45069 6.00033 4.32351 5.94765 4.22975 5.85388C4.13598 5.76012 4.0833 5.63294 4.0833 5.50033C4.0833 5.36772 4.13598 5.24055 4.22975 5.14678C4.32351 5.05301 4.45069 5.00033 4.5833 5.00033H6.10463L6.21463 3.345C6.32863 1.635 8.2893 0.727665 9.66663 1.74833L9.91397 1.93166C9.96908 1.96979 10.016 2.0186 10.0518 2.0752C10.0877 2.1318 10.1118 2.19503 10.1228 2.26114C10.1337 2.32725 10.1313 2.39488 10.1156 2.46003C10.0999 2.52517 10.0713 2.58649 10.0314 2.64035C9.99152 2.69421 9.94123 2.73951 9.88351 2.77355C9.82579 2.80759 9.76182 2.82968 9.69539 2.83851C9.62896 2.84734 9.56144 2.84272 9.49683 2.82494C9.43223 2.80716 9.37185 2.77657 9.3193 2.735L9.0713 2.55166Z" fill="white"/>
<path d="M9.89127 8.50867C9.85629 8.44219 9.80678 8.38445 9.74641 8.33973C9.68604 8.29502 9.61638 8.26448 9.54259 8.25039C9.4688 8.2363 9.39279 8.23901 9.32019 8.25834C9.2476 8.27766 9.18029 8.31309 9.12327 8.362L8.90861 8.546C8.85882 8.58925 8.80097 8.62222 8.73839 8.64302C8.67581 8.66381 8.60974 8.67203 8.54397 8.66718C8.4782 8.66234 8.41404 8.64453 8.35519 8.61479C8.29633 8.58504 8.24394 8.54395 8.20103 8.49387C8.15812 8.4438 8.12554 8.38573 8.10517 8.32301C8.08479 8.26029 8.07703 8.19416 8.08232 8.12843C8.08761 8.06269 8.10585 7.99866 8.13599 7.94C8.16613 7.88135 8.20757 7.82924 8.25794 7.78667L8.47261 7.60267C8.64367 7.45594 8.84559 7.34965 9.06337 7.29168C9.28115 7.23371 9.5092 7.22556 9.73056 7.26784C9.95193 7.31011 10.1609 7.40172 10.342 7.53587C10.5231 7.67001 10.6717 7.84323 10.7766 8.04267L11.4279 9.28133L13.2299 7.47933C13.2761 7.4316 13.3313 7.39354 13.3923 7.36736C13.4533 7.34118 13.5189 7.32742 13.5853 7.32688C13.6517 7.32633 13.7175 7.33901 13.779 7.36418C13.8404 7.38935 13.8962 7.42651 13.9431 7.47347C13.9901 7.52044 14.0272 7.57629 14.0523 7.63774C14.0774 7.6992 14.09 7.76505 14.0894 7.83144C14.0888 7.89783 14.075 7.96343 14.0487 8.02442C14.0225 8.08541 13.9844 8.14056 13.9366 8.18667L11.9159 10.208L12.9419 12.1573C12.9769 12.2238 13.0264 12.2816 13.0868 12.3263C13.1472 12.371 13.2168 12.4015 13.2906 12.4156C13.3644 12.4297 13.4404 12.427 13.513 12.4077C13.5856 12.3883 13.6529 12.3529 13.7099 12.304L13.9246 12.12C14.0254 12.0337 14.1563 11.991 14.2886 12.0013C14.4209 12.0115 14.5437 12.0739 14.6299 12.1747C14.7162 12.2754 14.7589 12.4064 14.7487 12.5387C14.7384 12.6709 14.6761 12.7937 14.5753 12.88L14.3606 13.0633C14.1895 13.2101 13.9876 13.3164 13.7698 13.3743C13.5521 13.4323 13.324 13.4404 13.1026 13.3982C12.8813 13.3559 12.6723 13.2643 12.4912 13.1301C12.3101 12.996 12.1616 12.8228 12.0566 12.6233L11.1753 10.948L8.93661 13.1867C8.89083 13.2358 8.83563 13.2752 8.7743 13.3025C8.71297 13.3298 8.64676 13.3445 8.57962 13.3457C8.51249 13.3469 8.4458 13.3346 8.38354 13.3094C8.32128 13.2843 8.26473 13.2468 8.21725 13.1994C8.16977 13.1519 8.13234 13.0953 8.10719 13.0331C8.08204 12.9708 8.06969 12.9041 8.07088 12.837C8.07206 12.7698 8.08676 12.7036 8.11409 12.6423C8.14141 12.581 8.18082 12.5258 8.22994 12.48L10.6879 10.022L9.89127 8.50867Z" fill="white"/>
</svg>
