<svg width="32" height="32" viewBox="0 0 17 16" fill="none" xmlns="http://www.w3.org/2000/svg">
<path d="M6.12732 12.629L10.4607 2.96234C10.5125 2.84673 10.6063 2.75513 10.7231 2.70604C10.84 2.65695 10.971 2.65404 11.0899 2.6979C11.2088 2.74176 11.3066 2.82911 11.3635 2.94231C11.4205 3.0555 11.4323 3.18609 11.3967 3.30767L11.3727 3.37168L7.03932 13.0383C6.98746 13.1539 6.89364 13.2456 6.77683 13.2946C6.66002 13.3437 6.52892 13.3466 6.41005 13.3028C6.29117 13.2589 6.19339 13.1716 6.13645 13.0584C6.07951 12.9452 6.06767 12.8146 6.10332 12.693L6.12732 12.629ZM2.22998 7.64701L5.06332 4.81367C5.15265 4.72504 5.27212 4.67334 5.39789 4.66892C5.52366 4.66449 5.64647 4.70765 5.74182 4.78978C5.83717 4.87192 5.89803 4.98698 5.91228 5.11202C5.92652 5.23706 5.89309 5.36287 5.81865 5.46434L5.76998 5.52101L3.28998 8.00034L5.76998 10.4797C5.85862 10.569 5.91031 10.6885 5.91474 10.8142C5.91917 10.94 5.87601 11.0628 5.79388 11.1582C5.71174 11.2535 5.59667 11.3144 5.47164 11.3286C5.3466 11.3429 5.22079 11.3094 5.11932 11.235L5.06332 11.1863L2.22998 8.35301C2.14531 8.26835 2.09382 8.15611 2.08489 8.03671C2.07596 7.9173 2.11018 7.79866 2.18132 7.70234L2.22998 7.64634V7.64701ZM11.73 4.81367C11.8146 4.729 11.9269 4.67751 12.0463 4.66858C12.1657 4.65965 12.2843 4.69387 12.3807 4.76501L12.4367 4.81367L15.27 7.64701C15.3547 7.73167 15.4061 7.8439 15.4151 7.96331C15.424 8.08272 15.3898 8.20136 15.3187 8.29768L15.27 8.35434L12.4367 11.1877C12.3474 11.2771 12.2277 11.3295 12.1014 11.3343C11.9751 11.339 11.8518 11.2958 11.7561 11.2133C11.6604 11.1308 11.5995 11.0151 11.5856 10.8895C11.5718 10.7639 11.6059 10.6377 11.6813 10.5363L11.73 10.4803L14.21 8.00034L11.73 5.52034C11.6364 5.42659 11.5838 5.29951 11.5838 5.16701C11.5838 5.03451 11.6364 4.90743 11.73 4.81367Z" fill="white"/>
</svg>
